<?xml version="1.0" encoding="utf-8"?>
<!-- Generator: Adobe Illustrator 17.1.0, SVG Export Plug-In . SVG Version: 6.00 Build 0)  -->
<!DOCTYPE svg PUBLIC "-//W3C//DTD SVG 1.1//EN" "http://www.w3.org/Graphics/SVG/1.1/DTD/svg11.dtd">
<svg version="1.1" id="レイヤー_1" xmlns="http://www.w3.org/2000/svg" xmlns:xlink="http://www.w3.org/1999/xlink" x="0px"
	 y="0px" viewBox="0 0 24 24" enable-background="new 0 0 24 24" xml:space="preserve">
<path fill="#555555" d="M23,14.9c0,0.4-0.2,0.8-0.5,1.1c-0.3,0.3-0.7,0.5-1.1,0.5h-4.9v4.9c0,0.4-0.2,0.8-0.5,1.1
	c-0.3,0.3-0.7,0.5-1.1,0.5H9.2c-0.4,0-0.8-0.2-1.1-0.5c-0.3-0.3-0.5-0.7-0.5-1.1v-4.9H2.7c-0.4,0-0.8-0.2-1.1-0.5
	c-0.3-0.3-0.5-0.7-0.5-1.1V9.2c0-0.4,0.2-0.8,0.5-1.1c0.3-0.3,0.7-0.5,1.1-0.5h4.9V2.7c0-0.4,0.2-0.8,0.5-1.1
	c0.3-0.3,0.7-0.5,1.1-0.5h5.7c0.4,0,0.8,0.2,1.1,0.5c0.3,0.3,0.5,0.7,0.5,1.1v4.9h4.9c0.4,0,0.8,0.2,1.1,0.5C22.8,8.4,23,8.8,23,9.2
	V14.9z M21.4,9.2h-5.3c-0.3,0-0.6-0.1-0.9-0.4C15,8.6,14.9,8.3,14.9,8V2.7H9.2V8c0,0.3-0.1,0.6-0.4,0.9C8.6,9.1,8.3,9.2,8,9.2H2.7
	v5.7H8c0.3,0,0.6,0.1,0.9,0.4c0.2,0.2,0.4,0.5,0.4,0.9v5.3h5.7v-5.3c0-0.3,0.1-0.6,0.4-0.9c0.2-0.2,0.5-0.4,0.9-0.4h5.3V9.2z
	 M5,12.5c-0.3,0-0.4-0.1-0.4-0.4c0-0.3,0.1-0.4,0.4-0.4h3.2c0.3,0,0.4,0.1,0.4,0.4c0,0.3-0.1,0.4-0.4,0.4H5z M12.5,8.2
	c0,0.3-0.1,0.4-0.4,0.4s-0.4-0.1-0.4-0.4V5c0-0.3,0.1-0.4,0.4-0.4s0.4,0.1,0.4,0.4V8.2z M12.5,19.1c0,0.3-0.1,0.4-0.4,0.4
	s-0.4-0.1-0.4-0.4V16c0-0.3,0.1-0.4,0.4-0.4s0.4,0.1,0.4,0.4V19.1z M16,12.5c-0.3,0-0.4-0.1-0.4-0.4c0-0.3,0.1-0.4,0.4-0.4h3.2
	c0.3,0,0.4,0.1,0.4,0.4c0,0.3-0.1,0.4-0.4,0.4H16z"/>
</svg>
