<?xml version="1.0" encoding="iso-8859-1"?>
<!-- Generator: Adobe Illustrator 19.0.0, SVG Export Plug-In . SVG Version: 6.00 Build 0)  -->
<svg version="1.1" id="Layer_1" xmlns="http://www.w3.org/2000/svg" xmlns:xlink="http://www.w3.org/1999/xlink" x="0px" y="0px"
	 viewBox="0 0 512 512" style="enable-background:new 0 0 512 512;" xml:space="preserve">
<path style="fill:#E8EDEE;" d="M459.034,229.517V105.931H317.793v-35.31H194.207v35.31H52.966v123.586h141.241
	c-8.828,64.441-65.324,114.759-132.414,114.759h-8.828v123.586h8.828c135.062,0,247.172-105.048,256-238.345H459.034z"/>
<g>
	<path style="fill:#C7CBC7;" d="M44.138,494.345H8.828c-5.297,0-8.828-3.531-8.828-8.828V326.621c0-5.297,3.531-8.828,8.828-8.828
		h35.31c5.297,0,8.828,3.531,8.828,8.828v158.897C52.966,490.814,49.434,494.345,44.138,494.345"/>
	<path style="fill:#C7CBC7;" d="M167.724,61.793v-35.31c0-5.297,3.531-8.828,8.828-8.828h158.897c5.297,0,8.828,3.531,8.828,8.828
		v35.31c0,5.297-3.531,8.828-8.828,8.828H176.552C171.255,70.621,167.724,67.09,167.724,61.793"/>
	<path style="fill:#C7CBC7;" d="M61.793,441.379h-8.828c-5.297,0-8.828-3.531-8.828-8.828s3.531-8.828,8.828-8.828h8.828
		c11.476,0,22.952-0.883,33.545-2.648c4.414-0.883,9.71,2.648,9.71,7.062c0.883,4.414-2.648,9.71-7.062,9.71
		C86.51,440.497,74.152,441.379,61.793,441.379"/>
	<path style="fill:#C7CBC7;" d="M158.897,418.428c-3.531,0-6.179-1.766-7.945-5.297c-1.766-4.414,0-9.71,4.414-11.476
		c18.538-8.828,35.31-21.186,51.2-35.31c3.531-3.531,8.828-3.531,12.359,0.883c3.531,3.531,3.531,8.828-0.883,12.359
		c-16.772,15.007-35.31,28.248-54.731,37.959C161.545,418.428,159.779,418.428,158.897,418.428"/>
	<path style="fill:#C7CBC7;" d="M231.283,361.931c-1.766,0-4.414-0.883-5.297-1.766c-3.531-3.531-4.414-8.828-0.883-12.359
		c15.007-17.655,26.483-37.959,35.31-59.145c1.766-4.414,7.062-7.062,11.476-5.297c4.414,1.766,7.062,7.062,5.297,11.476
		c-8.828,22.952-22.069,45.021-37.959,64.441C236.579,361.048,233.931,361.931,231.283,361.931"/>
	<path style="fill:#C7CBC7;" d="M280.717,247.172h-0.883c-4.414-0.883-7.945-5.297-7.945-9.71c0.883-8.828,1.766-16.772,1.766-25.6
		v-17.655c0-5.297,3.531-8.828,8.828-8.828c5.297,0,8.828,3.531,8.828,8.828v17.655c0,8.828-0.883,18.538-1.766,27.366
		C289.545,243.641,285.131,247.172,280.717,247.172"/>
	<path style="fill:#C7CBC7;" d="M44.138,256H8.828C3.531,256,0,252.469,0,247.172V88.276c0-5.297,3.531-8.828,8.828-8.828h35.31
		c5.297,0,8.828,3.531,8.828,8.828v158.897C52.966,252.469,49.434,256,44.138,256"/>
	<path style="fill:#C7CBC7;" d="M459.034,203.034h-17.655c-5.297,0-8.828-3.531-8.828-8.828s3.531-8.828,8.828-8.828h17.655
		c5.297,0,8.828,3.531,8.828,8.828S464.331,203.034,459.034,203.034"/>
	<path style="fill:#C7CBC7;" d="M370.759,203.034h-88.276c-5.297,0-8.828-3.531-8.828-8.828s3.531-8.828,8.828-8.828h88.276
		c5.297,0,8.828,3.531,8.828,8.828S376.055,203.034,370.759,203.034"/>
	<path style="fill:#C7CBC7;" d="M467.862,79.448h35.31c5.297,0,8.828,3.531,8.828,8.828v158.897c0,5.297-3.531,8.828-8.828,8.828
		h-35.31c-5.297,0-8.828-3.531-8.828-8.828V88.276C459.034,82.979,462.566,79.448,467.862,79.448"/>
	<path style="fill:#C7CBC7;" d="M414.897,194.207c0-5.297-3.531-8.828-8.828-8.828s-8.828,3.531-8.828,8.828
		s3.531,8.828,8.828,8.828S414.897,199.503,414.897,194.207"/>
</g>
<g>
</g>
<g>
</g>
<g>
</g>
<g>
</g>
<g>
</g>
<g>
</g>
<g>
</g>
<g>
</g>
<g>
</g>
<g>
</g>
<g>
</g>
<g>
</g>
<g>
</g>
<g>
</g>
<g>
</g>
</svg>
