<?xml version="1.0" encoding="utf-8"?>
<!-- Generator: Adobe Illustrator 18.0.0, SVG Export Plug-In . SVG Version: 6.00 Build 0)  -->
<!DOCTYPE svg PUBLIC "-//W3C//DTD SVG 1.1//EN" "http://www.w3.org/Graphics/SVG/1.1/DTD/svg11.dtd">
<svg version="1.1" xmlns="http://www.w3.org/2000/svg" xmlns:xlink="http://www.w3.org/1999/xlink" x="0px" y="0px"
	 viewBox="0 0 600 300" enable-background="new 0 0 600 300" xml:space="preserve">
<g id="locked">
	<g>
		<rect x="145.1" y="70.7" fill="#DFE9E9" width="201.8" height="71.7"/>
	</g>
	<g>
		<path fill="#DFE9E9" d="M142.2,142.2c-12.1,0-60.5-2.3-96.6-37.3C28.4,88.2,8,57.7,8,6.8h71.7c0,20.8,5.1,36,15.5,46.3
			C112.3,70,140,70.4,142.4,70.5l0.7,0l0.2,0h11.2v71.7h-10.7C143.3,142.2,142.8,142.2,142.2,142.2z"/>
	</g>
	<rect x="0" y="-1" fill="#C7D2D2" width="87.6" height="18.8"/>
	<rect x="135.7" y="61.6" fill="#C7D2D2" width="18.8" height="87.6"/>
	<polygon fill="#5AAAFA" points="419.2,280 425.9,268.3 432.7,280 	"/>
	<rect x="444.4" y="275.3" fill="#7CC7FF" width="11.9" height="11.9"/>
	<rect x="450.3" y="240.5" fill="#7CC7FF" width="11.9" height="11.9"/>
	<circle fill="#5AAAFA" cx="471.6" cy="263.6" r="5.9"/>
	<circle fill="#C0E6FF" cx="438.6" cy="257.6" r="5.9"/>
	<rect x="439" y="218.1" fill="#C0E6FF" width="11.9" height="11.9"/>
	<circle fill="#7CC7FF" cx="465.7" cy="224.1" r="5.9"/>
	<polygon fill="#7CC7FF" points="420.7,244.6 427.4,232.9 434.2,244.6 	"/>
	<g>
		<path fill="#DFE9E9" d="M482.3,205.9h-71.7c0-20.8-5.1-36-15.5-46.3c-17.1-16.9-44.9-17.4-47.2-17.4l-0.7,0l-0.2,0h-11.2V70.5
			h10.7c8.6-0.2,60.2,0.5,98.2,37.3C461.9,124.4,482.3,154.9,482.3,205.9z"/>
	</g>
	<rect x="402.6" y="193.7" fill="#C7D2D2" width="87.6" height="18.8"/>
	<rect x="335.8" y="62.2" fill="#C7D2D2" width="18.8" height="87.6"/>
	<g>
		<circle fill="#C7D2D2" cx="73.1" cy="99" r="5.9"/>
		<circle fill="#C7D2D2" cx="302.4" cy="93.2" r="5.9"/>
		<circle fill="#C7D2D2" cx="238.6" cy="118.5" r="5.9"/>
		<circle fill="#C7D2D2" cx="213.6" cy="96.4" r="5.9"/>
		<polygon fill="#C7D2D2" points="62.6,63.7 69.4,52 76.2,63.7 		"/>
		<polygon fill="#C7D2D2" points="108.2,121.3 114.9,109.6 121.7,121.3 		"/>
		<rect x="93.7" y="81.4" fill="#C7D2D2" width="11.9" height="11.9"/>
		<circle fill="#C7D2D2" cx="424.3" cy="142.4" r="5.9"/>
		<rect x="409.1" y="106.6" fill="#C7D2D2" width="11.9" height="11.9"/>
		<rect x="268.5" y="112.5" fill="#C7D2D2" width="11.9" height="11.9"/>
		<polygon fill="#C7D2D2" points="420.7,182 427.4,170.3 434.2,182 		"/>
		<polygon fill="#C7D2D2" points="248.1,99 254.9,87.3 261.6,99 		"/>
		<rect x="444.4" y="158.4" fill="#C7D2D2" width="11.9" height="11.9"/>
	</g>
</g>
<g id="Layer_1">
</g>
</svg>
