<?xml version="1.0" encoding="iso-8859-1"?>
<!-- Generator: Adobe Illustrator 19.0.0, SVG Export Plug-In . SVG Version: 6.00 Build 0)  -->
<svg version="1.1" id="Layer_1" xmlns="http://www.w3.org/2000/svg" xmlns:xlink="http://www.w3.org/1999/xlink" x="0px" y="0px"
	 viewBox="0 0 512 512" style="enable-background:new 0 0 512 512;" xml:space="preserve">
<rect x="69.267" y="21.093" style="fill:#DBDBDB;" width="240.93" height="120.465"/>
<rect x="249.965" y="21.093" style="fill:#CCCCCE;" width="60.232" height="120.465"/>
<rect x="9.035" y="9.047" style="fill:#EDEDED;" width="72.279" height="144.558"/>
<rect x="370.43" y="201.791" style="fill:#CCCCCE;" width="120.465" height="240.93"/>
<g>
	<rect x="358.383" y="430.674" style="fill:#DBDBDB;" width="144.558" height="72.279"/>
	<rect x="117.453" y="274.07" style="fill:#DBDBDB;" width="120.465" height="168.651"/>
</g>
<g>
	<rect x="105.407" y="430.674" style="fill:#EDEDED;" width="144.558" height="72.279"/>
	<rect x="105.407" y="213.837" style="fill:#EDEDED;" width="144.558" height="72.279"/>
</g>
<path style="fill:#DBDBDB;" d="M358.383,213.837c0-33.265-26.967-60.232-60.232-60.232V9.047c113.103,0,204.79,91.688,204.79,204.79
	H358.383z"/>
<g>
	<path style="fill:#2E2D31;" d="M502.941,421.639h-3.012V222.872h3.012c0.007,0,0.016,0,0.024,0c4.99,0,9.035-4.044,9.035-9.035
		c0-0.228-0.008-0.455-0.025-0.678C511.613,95.56,415.83,0.012,298.151,0.012c-4.99,0-9.035,4.044-9.035,9.035v3.012H90.349V9.047
		c0-4.991-4.045-9.035-9.035-9.035H9.035C4.045,0.012,0,4.056,0,9.047v144.558c0,4.991,4.045,9.035,9.035,9.035h72.279
		c4.99,0,9.035-4.044,9.035-9.035v-3.012h198.767v3.012c0,4.991,4.045,9.035,9.035,9.035c28.231,0,51.198,22.967,51.198,51.198
		c0,4.991,4.045,9.035,9.035,9.035h3.012v198.767h-3.012c-4.99,0-9.035,4.044-9.035,9.035v72.279c0,4.991,4.045,9.035,9.035,9.035
		h144.558c4.99,0,9.035-4.044,9.035-9.035v-72.279C511.976,425.683,507.931,421.639,502.941,421.639z M72.279,144.57H18.07V18.082
		h54.209V144.57z M90.349,132.523V30.128h198.767v102.395H90.349z M307.186,145.157V18.288
		c100.762,4.603,181.91,85.753,186.515,186.515H366.831C362.778,173.818,338.17,149.21,307.186,145.157z M379.465,222.872H481.86
		v198.767H379.465V222.872z M493.906,493.918H367.418v-54.209h126.488V493.918z"/>
	<path style="fill:#2E2D31;" d="M249.965,204.802H105.407c-4.99,0-9.035,4.044-9.035,9.035v72.279c0,4.991,4.045,9.035,9.035,9.035
		h3.01v126.488h-3.01c-4.99,0-9.035,4.044-9.035,9.035v72.279c0,4.991,4.045,9.035,9.035,9.035h144.558
		c4.99,0,9.035-4.044,9.035-9.035v-72.279c0-4.991-4.045-9.035-9.035-9.035h-3.013V295.151h3.013c4.99,0,9.035-4.044,9.035-9.035
		v-72.279C259,208.846,254.954,204.802,249.965,204.802z M114.442,222.872H240.93v54.209H114.442V222.872z M240.93,493.918H114.442
		v-54.209H240.93V493.918z M228.882,421.639H126.487V295.151h102.395V421.639z"/>
</g>
<g>
</g>
<g>
</g>
<g>
</g>
<g>
</g>
<g>
</g>
<g>
</g>
<g>
</g>
<g>
</g>
<g>
</g>
<g>
</g>
<g>
</g>
<g>
</g>
<g>
</g>
<g>
</g>
<g>
</g>
</svg>
