<?xml version="1.0" encoding="utf-8"?>
<!-- Generator: Adobe Illustrator 19.2.1, SVG Export Plug-In . SVG Version: 6.00 Build 0)  -->
<svg version="1.1" id="Layer_1" xmlns="http://www.w3.org/2000/svg" xmlns:xlink="http://www.w3.org/1999/xlink" x="0px" y="0px"
	 viewBox="0 0 100 100" style="enable-background:new 0 0 100 100;" xml:space="preserve">
<style type="text/css">
	.st0{fill:#4F4E51;}
</style>
<path class="st0" d="M32.8,78.9l2-4.4h30.8l2,4.4h3V50.4h-3l-2,4.4h-6.6v-8.1l4-2.3v-3.4H37.4v3.4l4,2.3v8.1h-6.6l-2-4.4h-3v28.5
	H32.8z M77.1,74.5h8V54.9h-8l-2-4.4h-3c0,0.4,0,27.9,0,28.5h3L77.1,74.5z M23.2,74.5l2,4.4h3c0-0.8,0-27.9,0-28.5h-3l-2,4.4h-8v19.6
	H23.2z M62.9,39.4V36l-4-2.3V22.9H41.4v10.9l-4,2.3v3.4C37.7,39.4,62.4,39.4,62.9,39.4z"/>
</svg>
